<svg xmlns="http://www.w3.org/2000/svg" xmlns:xlink="http://www.w3.org/1999/xlink" viewBox="0,0,256,256" width="100px" height="100px"><g fill="#e6ff00" fill-rule="nonzero" stroke="none" stroke-width="1" stroke-linecap="butt" stroke-linejoin="miter" stroke-miterlimit="10" stroke-dasharray="" stroke-dashoffset="0" font-family="none" font-weight="none" font-size="none" text-anchor="none" style="mix-blend-mode: normal"><g transform="scale(5.12,5.12)"><path d="M16,50c-0.14844,0 -0.29687,-0.03125 -0.43359,-0.10156c-0.45312,-0.21875 -0.67187,-0.73828 -0.51562,-1.21484l7.5625,-22.68359h-7.61328c-0.33594,0 -0.64453,-0.16797 -0.83203,-0.44531c-0.1875,-0.27734 -0.21875,-0.62891 -0.08984,-0.9375l10,-24c0.15234,-0.375 0.51953,-0.61719 0.92188,-0.61719h9.5c0.33984,0 0.65625,0.17188 0.83984,0.45703c0.18359,0.28516 0.21094,0.64063 0.07422,0.94922l-7.87109,17.59375h7.45703c0.36719,0 0.70313,0.20313 0.87891,0.52344c0.17578,0.32422 0.16016,0.71484 -0.04297,1.02344l-19,29c-0.19141,0.29297 -0.50781,0.45313 -0.83594,0.45313z"></path></g></g></svg>